<svg id="e2uUqWFK8da1" xmlns="http://www.w3.org/2000/svg" xmlns:xlink="http://www.w3.org/1999/xlink" viewBox="0 0 375 374.999991" shape-rendering="geometricPrecision" text-rendering="geometricPrecision">
<style><![CDATA[
#e2uUqWFK8da2_tr {animation: e2uUqWFK8da2_tr__tr 2000ms linear infinite normal forwards}@keyframes e2uUqWFK8da2_tr__tr { 0% {transform: translate(180.975594px,195.400681px) rotate(0deg)} 75% {transform: translate(180.975594px,195.400681px) rotate(0deg);animation-timing-function: cubic-bezier(0.445,0.05,0.55,0.95)} 100% {transform: translate(180.975594px,195.400681px) rotate(89.999999deg)}} #e2uUqWFK8da3_to {animation: e2uUqWFK8da3_to__to 2000ms linear infinite normal forwards}@keyframes e2uUqWFK8da3_to__to { 0% {transform: translate(180.831983px,180.520877px);animation-timing-function: cubic-bezier(0.445,0.05,0.55,0.95)} 25% {transform: translate(83.668938px,180.520877px);animation-timing-function: cubic-bezier(0.445,0.05,0.55,0.95)} 50% {transform: translate(82.994194px,194.751372px);animation-timing-function: cubic-bezier(0.445,0.05,0.55,0.95)} 75% {transform: translate(174.3516px,203.435807px)} 100% {transform: translate(174.3516px,203.435807px)}} #e2uUqWFK8da3_tr {animation: e2uUqWFK8da3_tr__tr 2000ms linear infinite normal forwards}@keyframes e2uUqWFK8da3_tr__tr { 0% {transform: rotate(0deg)} 25% {transform: rotate(0deg);animation-timing-function: cubic-bezier(0.445,0.05,0.55,0.95)} 50% {transform: rotate(-89.999998deg)} 100% {transform: rotate(-89.999998deg)}} #e2uUqWFK8da4_to {animation: e2uUqWFK8da4_to__to 2000ms linear infinite normal forwards}@keyframes e2uUqWFK8da4_to__to { 0% {transform: translate(195.793612px,194.479129px);animation-timing-function: cubic-bezier(0.445,0.05,0.55,0.95)} 25% {transform: translate(284.859737px,194.479132px);animation-timing-function: cubic-bezier(0.445,0.05,0.55,0.95)} 50% {transform: translate(284.184994px,187.499995px);animation-timing-function: cubic-bezier(0.445,0.05,0.55,0.95)} 75% {transform: translate(187.5px,187.499996px)} 100% {transform: translate(187.5px,187.499996px)}} #e2uUqWFK8da4_tr {animation: e2uUqWFK8da4_tr__tr 2000ms linear infinite normal forwards}@keyframes e2uUqWFK8da4_tr__tr { 0% {transform: rotate(0deg)} 25% {transform: rotate(0deg);animation-timing-function: cubic-bezier(0.445,0.05,0.55,0.95)} 50% {transform: rotate(-90.327054deg);animation-timing-function: cubic-bezier(0.445,0.05,0.55,0.95)} 75% {transform: rotate(-89.865248deg)} 100% {transform: rotate(-89.865248deg)}}
]]></style>
<g id="e2uUqWFK8da2_tr" transform="translate(180.975594,195.400681) rotate(0)"><g transform="translate(-180.975593,-195.40068)"><g id="e2uUqWFK8da3_to" transform="translate(180.831983,180.520877)"><g id="e2uUqWFK8da3_tr" transform="rotate(0)"><path d="M12.675781,86.585938c0,42.058593.117188,111.566406.351563,154.503906l.410156,78.132812l2.996094-.878906c55.074218-15.71875,98.75-48.804688,127.519531-96.667969c10.507813-17.539062,18.671875-37.246093,24.660156-59.832031c8.691407-32.789062,20.253907-56.425781,39.160157-80.066406C235.25,47.402344,270.652344,24,314.742188,11.210938c2.585937-.761719-15.027344-.878907-149.535157-.9375L12.734375,10.214844l-.058594,76.371094Zm0,0" transform="scale(0.281245,0.281249) translate(-163.709055,-164.718745)" fill="#2c3c69"/></g></g><g id="e2uUqWFK8da4_to" transform="translate(195.793612,194.479129)"><g id="e2uUqWFK8da4_tr" transform="rotate(0)"><path d="M354.929688,60.996094c-12.09375,4.054687-20.367188,7.464844-30.40625,12.453125-54,27.144531-94.03125,76.492187-110.167969,136.003906-6.925781,25.378906-10.507813,35.304687-18.429688,50.757813-6.109375,11.867187-10.742187,19.386718-18.609375,29.839843-22.65625,30.253907-53.703125,54.109375-88.277344,67.851563-5.457031,2.175781-17.785156,6.34375-22.597656,7.699218-1.347656.351563,51.769532.585938,149.730469.585938l151.785156.058594.351563-7.519532c.527344-9.929687.527344-115.203124.058594-218.246093-.410157-75.429688-.527344-83.242188-1.351563-83.242188-.527344,0-5.925781,1.703125-12.085937,3.757813Zm0,0" transform="scale(0.281245,0.281249) translate(-217.563187,-211.742185)" fill="#2c3c69"/></g></g></g></g></svg>
